PathFileType	4	(X/Y/Z)	RBDS011\RBDS011runT45.trc
DataRate	CameraRate	NumFrames	NumMarkers	Units	OrigDataRate	OrigDataStartFrame	OrigNumFrames
150.000000	150.000000	5	33	mm	150.000000	562	4500
Frame#	Time	L.ASIS			L.Heel.Bottom			L.Heel.Lateral			L.Heel.Top			L.Iliac.Crest			L.MT1			L.MT5			L.PSIS			L.Shank.Bottom.Lateral			L.Shank.Bottom.Medial			L.Shank.Top.Lateral			L.Shank.Top.Medial			L.Thigh.Bottom.Lateral			L.Thigh.Bottom.Medial			L.Thigh.Top.Lateral			L.Thigh.Top.Medial			R.ASIS			R.ASY			R.Heel.Bottom			R.Heel.Lateral			R.Heel.Top			R.Iliac.Crest			R.MT1			R.MT5			R.PSIS			R.Shank.Bottom.Lateral			R.Shank.Bottom.Medial			R.Shank.Top.Lateral			R.Shank.Top.Medial			R.Thigh.Bottom.Lateral			R.Thigh.Bottom.Medial			R.Thigh.Top.Lateral			R.Thigh.Top.Medial			
		X1	Y1	Z1	X2	Y2	Z2	X3	Y3	Z3	X4	Y4	Z4	X5	Y5	Z5	X6	Y6	Z6	X7	Y7	Z7	X8	Y8	Z8	X9	Y9	Z9	X10	Y10	Z10	X11	Y11	Z11	X12	Y12	Z12	X13	Y13	Z13	X14	Y14	Z14	X15	Y15	Z15	X16	Y16	Z16	X17	Y17	Z17	X18	Y18	Z18	X19	Y19	Z19	X20	Y20	Z20	X21	Y21	Z21	X22	Y22	Z22	X23	Y23	Z23	X24	Y24	Z24	X25	Y25	Z25	X26	Y26	Z26	X27	Y27	Z27	X28	Y28	Z28	X29	Y29	Z29	X30	Y30	Z30	X31	Y31	Z31	X32	Y32	Z32	X33	Y33	Z33	

563	3.746666666666667	2415.785581769742	933.330913082212	914.4978562903285	1937.773834968213	629.1873935931926	1003.555241561219	1931.703925296093	601.3000883148759	961.8778877320281	1975.152248144357	596.8976448410849	998.8267053980359	2387.084098873392	1015.449779479835	877.1318358050512	1849.70598759797	421.6546052599763	1051.99099924236	1839.580102379176	452.9173641701207	941.1516358528523	2250.520333422344	983.1085029326589	974.3110569197279	2027.353208216964	523.6113146824248	932.2047747553493	2041.168068548819	558.9690167986695	972.6480983857736	2105.047197709518	516.1238997675275	912.7276062398286	2119.310847171646	550.4838414869776	951.3078876554378	2339.166748170784	545.8256695003147	860.3373817051869	2288.814862683761	537.4364242183165	912.7241878367967	2314.101803092688	653.1874675525401	856.0743812027195	2267.339843314403	645.7869288219406	905.8593712391986	2409.103131658112	963.7812560392435	1156.970520615425	2534.072096713081	84.33910751949432	1080.874385098839	2349.18821703211	31.67410812211428	1076.173796284607	2374.3275272695	48.51215974670783	1117.786048928667	2363.521583279857	80.58244751946492	1076.062917504187	2360.98725721469	1015.823194658917	1189.345274305129	2578.918407649066	36.85011509013988	1033.24234990657	2549.486992647829	33.04807266360231	1151.381063683458	2243.696912074105	993.4225229146631	1077.008658774675	2431.747695439041	153.249756606451	1133.999528842044	2396.437667786501	170.5735364388735	1100.910896509379	2445.85143411231	233.5874466716311	1157.767773986144	2407.004580559794	247.5322554514605	1123.405545227069	2461.947137201233	595.8660026424764	1199.510500638854	2407.692595485845	571.0089903543972	1156.65462240201	2404.775004930397	688.1599167577762	1215.412853988046	2351.513582959764	664.3309498095572	1178.801500880615	
564	3.753333333333333	2413.363912718319	928.8582181717486	914.9278802014107	1953.241185853116	624.6440263505199	1000.908494159941	1948.608695241534	596.2846271250066	959.6908659144831	1991.560639207974	593.518832363746	997.1785466722735	2383.643647272612	1009.919443773916	877.6306341267035	1870.500564295514	415.2866170259434	1050.191258857454	1861.260675975258	445.2290269159019	938.8347905094117	2247.845060181814	979.3971542490455	975.1336483969136	2046.391076260372	519.7823656144468	930.7727128613416	2059.960044667304	555.5641511178956	970.8924427430238	2124.133021308743	512.7033573396878	911.3025048239293	2138.258802651621	547.4190821212334	949.697355408599	2353.684201444037	543.784839968471	859.1482857868231	2303.582363972685	532.6607151628505	911.0749893109331	2323.566310237464	649.8152814735515	855.3876259823218	2276.88612597578	639.7584623815453	904.5911128681297	2406.984544288322	960.7383708837489	1157.559359841326	2505.13391893926	83.75864658862565	1079.603533832367	2319.649391364667	33.24004365401296	1076.084560416198	2345.104105685997	50.36994630545104	1117.446277162616	2334.622183845025	82.11982157053467	1075.523342737046	2359.372474098985	1010.445837321881	1189.800085358521	2549.447873054715	35.94672098702718	1032.435774114656	2520.017866523899	33.76749475814095	1150.968305499977	2241.340810935232	990.566983726228	1077.298985242697	2408.158550587429	154.1996994089746	1133.28337612015	2373.314224901076	173.5420877058975	1100.671952400002	2427.094518020227	233.5862279839099	1157.152763091116	2388.545346831104	249.827671316305	1123.271159813906	2456.467817846114	592.0269536312212	1199.726253295815	2402.558536622398	568.0519587499064	1155.948618823606	2399.914477124936	684.6877511693956	1215.936810618443	2346.88334103886	661.5868496758379	1178.572261872188	
565	3.76	2410.64502731065	925.040863727519	915.0591200961065	1967.742378953524	618.0573620066981	997.8003146374367	1964.766908103803	589.1374957891962	957.214838957436	2007.173980244489	588.4084691637861	995.1308188408299	2378.745085424769	1005.10630712511	878.0565952573955	1892.055626624951	406.5872604372207	1048.52894614364	1883.435923495584	434.9226379102461	936.5861513280861	2245.089318806553	976.2986034675895	976.2211633986432	2065.341261363167	514.7914011122334	929.2470645285922	2078.270806402353	551.1419971661085	968.9932357911719	2143.196152216216	508.7763224909885	909.9007525876324	2156.772569743785	544.0187202398996	948.0617477291923	2368.805126261306	543.2165652811739	858.1654073646195	2319.08046050345	529.2977824334621	909.5721950919819	2333.461154412636	647.5683682963855	854.8398699285841	2286.940037396537	634.7902686437865	903.3749795365012	2404.942256511225	958.0735203557997	1158.06069391454	2475.513364072425	83.88091996388258	1078.62247102334	2290.002708033285	34.449416370339	1076.084963274488	2315.662895497605	51.94157754773082	1117.231296260939	2305.264127978787	83.30886984599955	1075.16092795183	2357.297596138717	1005.406143163389	1190.280656853144	2519.488351980355	36.04916488458972	1031.821817670665	2490.224292680684	35.03603314861446	1150.621517956321	2239.093399465527	988.238689364754	1077.660403792907	2383.585971239463	155.1211236144873	1132.737753912274	2349.306925026006	176.2944815050398	1100.524355325422	2407.027422411782	233.3792858528453	1156.575326545539	2368.867877371927	251.7126566840896	1123.147583016545	2449.333259922876	587.8839250407299	1199.595558183169	2395.556251891138	565.1077045954027	1155.002439868556	2394.009510132867	681.2340370134843	1216.121870892355	2341.043275071965	659.1826245730173	1178.092469023095	
566	3.766666666666667	2407.748942667814	922.025862832076	914.8968335167287	1981.307678344381	609.4023104553848	994.4263954815613	1980.184646207314	579.9156262386938	954.5767669375753	2021.975410154783	581.5449597212076	992.8194645304427	2372.563416627818	1001.172829884061	878.4035952896282	1914.380940975234	395.6519891255553	1046.984103851928	1906.114609183932	422.2347790952231	934.4269954022488	2242.369707205262	973.8624806207717	977.5326372856466	2084.117146529698	508.7298364925792	927.6903522257342	2096.012988445362	545.7519394754055	967.0348711923817	2162.117029230485	504.4448913396062	908.5721033330193	2174.727385663099	540.3422299103203	946.4675638237266	2384.330770797135	544.2436589148036	857.3982236545232	2335.136575002805	527.4856146870868	908.2721561851464	2343.644852651176	646.5651430511575	854.4621100426392	2297.398601212712	631.0181504012756	902.2922324518287	2403.087596784745	955.8043439487913	1158.49083623112	2445.390110113493	84.40763793003532	1077.934363388264	2260.204696395695	35.32484985084952	1076.13639674617	2285.985594032717	53.19418646862626	1117.109085742905	2275.507870146098	84.17304929675281	1074.92790758534	2354.83635428124	1000.895542519874	1190.777015451583	2489.174539182032	36.7267391352753	1031.424701319071	2460.144765239827	36.47529601425858	1150.366054320446	2237.051753794038	986.4424965292287	1078.097180731401	2358.066507275918	155.8867450730083	1132.332623477676	2324.450977586895	178.697377992101	1100.421813237498	2385.6288547683	232.888553717356	1156.026611161546	2347.948866972492	253.0975854295122	1123.007362556413	2440.54420951569	583.5227066223733	1199.16995627711	2386.638485385492	562.2394774060934	1153.960729761055	2387.103926292898	677.884036246456	1215.999664456724	2334.00799193306	657.1989117211186	1177.45377797074	
567	3.773333333333333	2404.810384349402	919.9325660038992	914.4682914635723	1994.015746377911	598.6587132411389	990.9949689253742	1994.918664137285	568.688515379861	951.9097015062946	2035.99350169972	572.9156344819357	990.3952832263235	2365.405520115837	998.2463347875404	878.6733169301302	1937.518948526646	382.615731393181	1045.523431105416	1929.350865732926	407.4397614323086	932.3673557255959	2239.797830627802	972.1293363535306	979.0099982495955	2102.653287957184	501.6885960224151	926.1699853243035	2113.128985850426	539.4325965212896	965.1078195904282	2180.780939579605	499.7958031696833	907.3645871495482	2192.015881981422	536.4219887042011	944.9818070401225	2400.029822074701	546.9278716288503	856.8511848653815	2351.524757294703	527.3109379353454	907.2096634006103	2353.959522432975	646.8799827343364	854.2663097693633	2308.127662686616	628.5434309387512	901.394089581901	2401.523794974762	953.9410287825124	1158.855153856104	2414.936467172445	85.10919376066862	1077.50537946891	2230.217057459293	35.97842232169518	1076.197018007286	2256.063950525626	54.18964036238362	1117.040390842924	2245.420874491379	84.82202857666549	1074.774326623366	2352.127990267615	997.1037332251109	1191.269675844602	2458.61481527996	37.62011972792645	1031.22500528665	2429.809118613778	37.80366703429671	1150.192834657465	2235.298360709135	985.1786238671475	1078.617928301256	2331.672949045734	156.4769272809853	1132.025031635628	2298.814174205147	180.734382806175	1100.314559989519	2362.940046111122	232.1436518494715	1155.495948376189	2325.825254074678	254.013765278552	1122.823317680406	2430.19952768217	579.09560097902	1198.535062462703	2375.882251497126	559.5613075606295	1152.983706391312	2379.297452801494	674.7587783573338	1215.634558441933	2325.868474532646	655.7341260236603	1176.765714396285	
